<?xml version="1.0" encoding="iso-8859-1"?>
<!-- Uploaded to: SVG Repo, www.svgrepo.com, Generator: SVG Repo Mixer Tools -->
<svg height="800px" width="800px" version="1.1" id="Layer_1" xmlns="http://www.w3.org/2000/svg" xmlns:xlink="http://www.w3.org/1999/xlink" 
	 viewBox="0 0 503.322 503.322" xml:space="preserve">
<g>
	<path style="fill:#D75D72;" d="M314.479,147.525c-31.406,0-52.884,18.094-62.82,43.39c-9.928-25.296-31.406-43.39-62.82-43.39
		c-67.298,0-89.739,81.113-41.576,134.621c17.096,18.987,99.901,103.788,104.396,108.362c4.495-4.573,87.3-89.374,104.396-108.362
		C404.217,228.638,381.785,147.525,314.479,147.525"/>
	<path style="fill:#F0C419;" d="M251.661,190.915c7.715-19.656,22.485-34.842,43.39-40.682V0h-86.78v150.233
		C229.176,156.073,243.946,171.26,251.661,190.915"/>
	<g>
		<path style="fill:#C03A2B;" d="M159.304,295.051H17.359V468.61c0,9.58,7.767,17.356,17.356,17.356h173.559V345.938
			C190.823,327.958,172.044,308.493,159.304,295.051"/>
		<path style="fill:#C03A2B;" d="M188.843,147.525c7.003,0,13.425,1.024,19.43,2.708V17.356H34.714
			c-9.589,0-17.356,7.775-17.356,17.356v173.559h104.812C125.972,174.887,149.784,147.525,188.843,147.525"/>
		<path style="fill:#C03A2B;" d="M295.05,345.941v140.028H468.61c9.58,0,17.356-7.775,17.356-17.356V295.053H344.02
			C331.281,308.496,312.493,327.96,295.05,345.941"/>
		<path style="fill:#C03A2B;" d="M468.61,17.356H295.05v132.877c5.996-1.684,12.427-2.708,19.43-2.708
			c39.06,0,62.863,27.362,66.673,60.746h104.812V34.712C485.966,25.131,478.19,17.356,468.61,17.356"/>
	</g>
	<g>
		<path style="fill:#F0C419;" d="M251.661,390.508c-2.117-2.152-21.599-22.103-43.39-44.57v157.384h86.78V345.938
			C273.26,368.406,253.778,388.356,251.661,390.508"/>
		<path style="fill:#F0C419;" d="M381.152,208.271c2.751,24.142-4.886,51.417-25.097,73.876c-2.612,2.898-6.882,7.454-12.036,12.904
			h159.301v-86.78H381.152z"/>
		<path style="fill:#F0C419;" d="M147.266,282.144c-20.211-22.459-27.848-49.733-25.097-73.876H0.001v86.78h159.301
			C154.139,289.598,149.878,285.043,147.266,282.144"/>
	</g>
	<g>
		<path style="fill:#96241B;" d="M399.186,43.39c-4.79,0-8.678,3.888-8.678,8.678s3.888,8.678,8.678,8.678h86.78V43.39H399.186z"/>
		<path style="fill:#96241B;" d="M433.898,78.102c-4.79,0-8.678,3.888-8.678,8.678s3.888,8.678,8.678,8.678h52.068V78.102H433.898z"
			/>
		<path style="fill:#96241B;" d="M69.423,425.22c4.79,0,8.678-3.888,8.678-8.678c0-4.79-3.888-8.678-8.678-8.678H17.355v17.356
			H69.423z"/>
		<path style="fill:#96241B;" d="M104.135,459.932c4.79,0,8.678-3.888,8.678-8.678s-3.888-8.678-8.678-8.678h-86.78v17.356H104.135z
			"/>
	</g>
</g>
</svg>