<?xml version="1.0" encoding="iso-8859-1"?>
<!-- Uploaded to: SVG Repo, www.svgrepo.com, Generator: SVG Repo Mixer Tools -->
<svg height="800px" width="800px" version="1.1" id="Layer_1" xmlns="http://www.w3.org/2000/svg" xmlns:xlink="http://www.w3.org/1999/xlink" 
	 viewBox="0 0 512 512" xml:space="preserve">
<g>
	<path style="fill:#ECF0F1;" d="M397.241,0v24.964c0,18.441-13.48,34.913-31.841,36.661c-21.063,2.004-38.78-14.495-38.78-35.143V0
		h-35.31v24.964c0,18.441-13.48,34.913-31.841,36.661c-21.063,2.004-38.78-14.495-38.78-35.143V0h-35.31v24.964
		c0,18.441-13.48,34.913-31.841,36.661c-21.063,2.004-38.78-14.495-38.78-35.143V0H97.103c-9.746,0-17.655,7.91-17.655,17.655
		v476.69c0,9.746,7.91,17.655,17.655,17.655h317.793c9.746,0,17.655-7.91,17.655-17.655V17.655C432.552,7.91,424.642,0,414.897,0
		H397.241z"/>
	<path style="fill:#C03A2B;" d="M193.914,132.414c-22.784,0-40.483,11.361-48.552,31.17c-9.604,23.596-2.816,51.518,17.293,71.159
		c14.963,14.601,74.266,71.106,93.237,88.708c19.182-17.999,79.166-74.381,93.052-88.576c20.303-20.727,27.136-49.09,17.39-72.263
		c-8.068-19.191-25.741-30.199-48.499-30.199c-28.081,0-46.548,19.933-53.839,37.005c-1.386,3.257-4.582,5.367-8.113,5.367
		c-3.54,0-6.727-2.11-8.121-5.358C240.462,152.355,221.986,132.414,193.914,132.414 M255.998,344.276
		c-1.924,0-3.849-0.627-5.464-1.889c-5.5-4.343-86.846-81.973-100.202-95.02c-25.282-24.664-33.642-60.169-21.319-90.439
		c10.752-26.403,35.01-42.169,64.9-42.169c28.751,0,49.717,15.81,61.97,33.245c12.235-17.443,33.192-33.245,61.952-33.245
		c29.767,0,53.981,15.334,64.777,41.013c12.5,29.74,4.237,65.642-21.045,91.463c-16.772,17.126-98.71,93.89-99.531,94.658
		C260.341,343.473,258.17,344.276,255.998,344.276"/>
	<g>
		<path style="fill:#BDC3C7;" d="M220.69,397.241h-88.276c-4.882,0-8.828-3.955-8.828-8.828s3.946-8.828,8.828-8.828h88.276
			c4.882,0,8.828,3.955,8.828,8.828S225.571,397.241,220.69,397.241"/>
		<path style="fill:#BDC3C7;" d="M379.586,397.241H273.655c-4.882,0-8.828-3.955-8.828-8.828s3.946-8.828,8.828-8.828h105.931
			c4.882,0,8.828,3.955,8.828,8.828S384.468,397.241,379.586,397.241"/>
		<path style="fill:#BDC3C7;" d="M256,432.552H132.414c-4.882,0-8.828-3.955-8.828-8.828c0-4.873,3.946-8.828,8.828-8.828H256
			c4.882,0,8.828,3.955,8.828,8.828C264.828,428.597,260.882,432.552,256,432.552"/>
		<path style="fill:#BDC3C7;" d="M379.586,432.552h-70.621c-4.882,0-8.828-3.955-8.828-8.828c0-4.873,3.946-8.828,8.828-8.828
			h70.621c4.882,0,8.828,3.955,8.828,8.828C388.414,428.597,384.468,432.552,379.586,432.552"/>
		<path style="fill:#BDC3C7;" d="M185.379,467.862h-52.966c-4.882,0-8.828-3.955-8.828-8.828s3.946-8.828,8.828-8.828h52.966
			c4.882,0,8.828,3.955,8.828,8.828S190.261,467.862,185.379,467.862"/>
		<path style="fill:#BDC3C7;" d="M300.138,467.862h-61.793c-4.882,0-8.828-3.955-8.828-8.828s3.946-8.828,8.828-8.828h61.793
			c4.882,0,8.828,3.955,8.828,8.828S305.02,467.862,300.138,467.862"/>
		<path style="fill:#BDC3C7;" d="M379.586,467.862h-26.483c-4.882,0-8.828-3.955-8.828-8.828s3.946-8.828,8.828-8.828h26.483
			c4.882,0,8.828,3.955,8.828,8.828S384.468,467.862,379.586,467.862"/>
	</g>
</g>
</svg>